<svg width="160" height="175" viewBox="0 0 160 175" fill="none" xmlns="http://www.w3.org/2000/svg">
<g clip-path="url(#clip0_121_14)">
<path d="M54.2724 140.283C67.6427 142.368 87.0463 134.935 88.4176 134.387C89.7889 133.838 94.04 130.821 94.04 130.821L66.8883 135.072L29.8633 117.52L14.5048 86.8029L18.0702 61.9825L29.3148 43.3328L23.144 39.3561C23.144 39.3561 13.9088 50.9062 10.391 60.6112C3.41448 79.858 4.39477 96.1849 15.4647 113.406C25.4331 128.914 36.0573 137.443 54.2724 140.283Z" fill="#ED1C24" stroke="#ED1C24" stroke-width="1.3713" stroke-linecap="round"/>
<path d="M125.189 81.1805C125.189 110.99 100.442 135.21 69.8467 135.21C39.2518 135.21 14.5048 110.99 14.5048 81.1805C14.5048 51.3712 39.2518 27.1514 69.8467 27.1514C100.442 27.1514 125.189 51.3712 125.189 81.1805Z" fill="white" stroke="#ED1C24" stroke-width="2.74259"/>
<path d="M71.4331 133.558C43.0574 133.558 20.5386 108.9 20.5386 81.1807C20.5386 53.4619 43.2732 29.1038 71.6489 29.1038" stroke="#ED1C24" stroke-width="0.548518" stroke-linecap="round" stroke-dasharray="0.27 1.37"/>
<path d="M69.059 133.342C40.6833 133.342 18.6187 108.351 18.6187 80.6324C18.6187 52.9135 41.3307 29.3192 69.7064 29.3192" stroke="#ED1C24" stroke-width="0.548518" stroke-linecap="round" stroke-dasharray="0.27 1.37"/>
<path d="M67.98 132.91C39.6043 132.91 16.9734 108.351 16.9734 80.6322C16.9734 52.9134 40.2518 28.8875 68.6274 28.8875" stroke="#ED1C24" stroke-width="0.548518" stroke-linecap="round" stroke-dasharray="0.27 1.37"/>
<path d="M22.5951 38.945C22.5951 38.945 18.0776 32.5188 17.2471 27.2889C16.1287 20.2466 18.2036 15.3812 22.7322 9.87346C27.8897 3.60095 33.4295 0.250254 41.519 0.96004C46.4435 1.39212 53.175 5.8967 53.175 5.8967" stroke="#ED1C24" stroke-width="1.3713" stroke-linecap="round"/>
<path d="M52.49 6.17074C37.1959 12.9156 27.8066 41.1388 27.8066 41.1388L29.3151 42.6472L38.2285 36.4764L50.8444 30.5796L62.9118 28.1113L74.4307 26.4659C74.4307 26.4659 78.6986 18.9534 78.1332 13.85C77.5924 8.96878 77.6489 8.09465 73.6721 5.07766C69.6954 2.06068 59.6514 3.01249 52.49 6.17074Z" fill="#ED1C24" stroke="#ED1C24" stroke-width="1.3713" stroke-linecap="round"/>
<path d="M68.1226 118.068C68.1226 118.068 72.3111 119.467 74.979 119.028C78.3959 118.467 82.5212 114.366 82.5212 114.366" stroke="#ED1C24" stroke-width="1.3713" stroke-linecap="round"/>
<path d="M67.0255 113.269C67.0255 113.269 68.2531 116.26 67.9854 118.205C67.6512 120.635 64.6943 123.554 64.6943 123.554" stroke="#ED1C24" stroke-width="1.3713" stroke-linecap="round"/>
<path d="M86.0863 67.3956C86.0863 67.3956 90.3584 63.8079 93.863 64.2062C96.612 64.5187 99.3185 66.9838 99.3185 66.9838" stroke="#ED1C24" stroke-width="2.74259" stroke-linecap="round"/>
<path d="M87.6015 51.9121C87.4647 49.7182 85.9573 37.3768 89.6594 36.2795C93.3615 35.1823 97.0644 46.0158 98.0243 49.9925C98.9841 53.9692 100.081 63.2939 95.556 65.0767C91.0308 66.8595 87.7382 54.1059 87.6015 51.9121Z" fill="#ED1C24" stroke="#ED1C24" stroke-width="1.3713"/>
<path d="M91.2978 85.1576C91.2978 95.56 83.0443 103.944 72.9224 103.944C62.8005 103.944 54.5471 95.56 54.5471 85.1576C54.5471 74.7551 62.8005 66.3708 72.9224 66.3708C83.0443 66.3708 91.2978 74.7551 91.2978 85.1576Z" stroke="#ED1C24" stroke-width="2.74259"/>
<path d="M30.5491 77.3409C27.8811 77.3409 28.904 81.0436 27.2582 83.1005C25.6124 85.1574 14.0935 92.2881 11.2139 95.8535C8.33435 99.4189 0.264222 107.649 3.53481 112.446C6.89692 117.378 16.8365 114.366 16.8365 114.366L12.9968 106.138C13.5584 105.4 19.4398 100.148 19.9904 99.5561C24.2279 94.9982 29.7424 94.208 31.5092 90.3684C33.5688 85.8927 35.0744 77.3411 30.5491 77.3409Z" fill="#FFFCFC"/>
<path d="M10.5285 108.332C10.5285 108.332 11.5651 108.02 12.9968 106.138M12.9968 106.138C13.5584 105.4 19.4398 100.148 19.9904 99.5561C24.2279 94.9982 29.7424 94.208 31.5092 90.3684C33.5688 85.8927 35.0744 77.3411 30.5491 77.3409C27.8811 77.3409 28.904 81.0436 27.2582 83.1005C25.6124 85.1574 14.0935 92.2881 11.2139 95.8535C8.33435 99.4189 0.264222 107.649 3.53481 112.446C6.89692 117.378 16.8365 114.366 16.8365 114.366L12.9968 106.138Z" stroke="#ED1C24" stroke-width="1.59874" stroke-linecap="round"/>
<path d="M98.8394 121.222C98.8394 121.222 104.132 118.057 106.93 115.326C108.834 113.467 111.318 110.115 111.318 110.115" stroke="#ED1C24" stroke-width="1.3713" stroke-linecap="round"/>
<path d="M24.8638 73.6032C24.8638 73.6032 25.4566 67.8938 26.539 64.3538C27.317 61.8097 30.3855 57.8359 30.3855 57.8359" stroke="#ED1C24" stroke-width="1.3713" stroke-linecap="round"/>
<ellipse cx="12.2884" cy="8.92856" rx="3.01685" ry="5.48518" transform="rotate(37.5972 12.2884 8.92856)" fill="#ED1C24"/>
<path d="M42.2519 174.223L58.8446 148.717L64.1455 140.421L58.8446 140.695L55.3692 140.421L50.754 147.209L39.2351 163.39C39.2351 163.39 37.8329 134.412 24.4251 131.576C17.0803 130.023 10.6667 130.543 5.77547 136.239C1.93352 140.712 1.40852 145.069 2.2101 150.911C2.95905 156.37 5.20401 159.209 8.79232 163.39C14.6128 170.172 28.9504 174.223 28.9504 174.223H42.2519Z" fill="#ED1C24" stroke="#ED1C24" stroke-width="1.3713" stroke-linecap="round"/>
<path d="M82.1099 164.281L75.939 146.591L73.4707 138.912L78.2702 137.678L82.1099 136.855L84.8525 145.357L90.749 161.95C90.749 161.95 98.9064 157.519 104.599 156.053C110.435 154.55 114.219 152.703 119.958 154.545C125.844 156.434 129.576 159.317 131.751 165.104C132.999 168.426 132.574 174.154 132.574 174.154L75.939 174.428C75.939 174.428 76.2425 169.834 77.4475 168.12C78.6524 166.407 82.1099 164.281 82.1099 164.281Z" fill="#ED1C24" stroke="#ED1C24" stroke-width="1.3713" stroke-linecap="round"/>
<path d="M64.0085 94.3004C67.871 94.3161 73.4705 97.1801 73.4705 97.1801C73.4705 97.1801 84.0636 92.2357 90.2003 94.3006C97.3121 96.6937 99.5251 109.522 99.5251 109.522C99.5251 109.522 89.7889 105.819 84.4408 104.037C79.5785 102.416 74.1561 106.642 74.1561 106.642C74.1561 106.642 68.1224 103.351 63.1858 105.271C58.2491 107.191 47.1416 115.281 47.1416 115.281C47.1416 115.281 53.4957 94.2577 64.0085 94.3004Z" fill="#ED1C24" stroke="#ED1C24" stroke-width="1.3713"/>
<path d="M43.1649 174.566C40.4223 172.235 34.3378 164.945 32.9273 161.745C30.3841 155.975 27.7889 148.973 27.1207 147.414C26.2979 145.494 23.6883 140.879 20.0371 139.118C16.1704 137.254 12.5235 137.124 8.47108 139.118C5.56634 140.548 0.928955 146.043 0.928955 146.043" stroke="white" stroke-width="0.822777" stroke-linecap="round"/>
<path d="M42.3491 72.2072C42.3491 72.2072 45.8285 67.8465 49.3427 67.5448C52.0992 67.3081 55.2393 69.1901 55.2393 69.1901" stroke="#ED1C24" stroke-width="2.74259" stroke-linecap="round"/>
<path d="M41.3895 54.9292C41.2528 52.7353 39.7454 40.3939 43.4475 39.2966C47.1496 38.1994 50.8525 49.0329 51.8124 53.0096C52.7722 56.9863 53.8692 66.311 49.344 68.0938C44.8188 69.8766 41.5263 57.123 41.3895 54.9292Z" fill="#ED1C24" stroke="#ED1C24" stroke-width="1.3713"/>
<path d="M44.5362 55.2631L40.8337 53.7546L40.2852 56.3601L41.5193 57.8685L44.5362 55.2631Z" fill="white" stroke="white" stroke-width="0.548518" stroke-linecap="round"/>
<path d="M90.6119 52.246L86.9094 50.7375L86.3608 53.343L87.595 54.8514L90.6119 52.246Z" fill="white" stroke="white" stroke-width="0.548518" stroke-linecap="round"/>
<path d="M30.7703 23.4831L24.9614 18.1829L25.976 17.0709L33.2855 17.4598L32.7934 17.9992L28.6109 14.183L29.8224 12.8553L35.6313 18.1555L34.6243 19.2592L27.3072 18.8786L27.7993 18.3392L31.9818 22.1553L30.7703 23.4831ZM38.2028 15.3372L35.8295 13.1717L36.9229 13.6067L30.342 12.2858L31.6443 10.8585L36.6925 11.8758L35.9429 12.6973L34.4761 7.7549L35.68 6.43545L37.5967 12.8681L37.0561 11.8273L39.4294 13.9928L38.2028 15.3372Z" fill="#ED1C24"/>
<line x1="17.0564" y1="25.1219" x2="29.6723" y2="34.721" stroke="#ED1C24" stroke-width="0.274259"/>
<line x1="18.4278" y1="17.7177" x2="32.6893" y2="28.6881" stroke="#ED1C24" stroke-width="0.274259"/>
<line x1="21.7185" y1="12.2315" x2="35.98" y2="22.9276" stroke="#ED1C24" stroke-width="0.274259"/>
<line x1="25.8324" y1="7.29533" x2="40.3681" y2="18.2657" stroke="#ED1C24" stroke-width="0.274259"/>
<line x1="30.4959" y1="3.45658" x2="43.9346" y2="13.8784" stroke="#ED1C24" stroke-width="0.274259"/>
<line x1="37.0784" y1="0.439611" x2="50.5171" y2="10.8615" stroke="#ED1C24" stroke-width="0.274259"/>
<path d="M85.6286 80.5337C87.432 85.843 85.2453 90.8078 81.7183 94.7948H86.3187L89.6156 89.6577L90.5357 83.754L89.2322 76.7001L86.5487 72.7131L82.2551 69.4162L78.2681 67.9594L75.2779 66.656L73.5911 67.4227C78.8815 67.9594 83.683 74.8056 85.6286 80.5337Z" fill="#ED1C24" stroke="#ED1C24" stroke-width="1.53345" stroke-linecap="round"/>
<path d="M124.901 75.1575C124.901 75.1575 132.258 66.0737 133.949 58.2852C134.917 53.8252 135.044 51.2472 135.746 46.7376M135.746 46.7376C138.195 46.7446 142.018 46.7554 142.018 46.7554M135.746 46.7376C134.884 46.5201 134.391 46.2241 133.794 45.5651C133.125 44.8263 132.904 44.2095 132.788 43.2196C132.718 42.6198 132.876 41.6759 132.876 41.6759L130.989 40.2808C130.989 40.2808 128.804 38.0695 128.05 36.2853C127.34 34.6075 127.215 31.6961 127.215 31.6961C127.215 31.6961 123.164 28.9839 122.643 26.2591C122.308 24.5051 122.109 23.1071 123.241 21.7254C124.6 20.0652 126.6 19.9362 128.627 20.64C130.608 21.3277 132.155 24.6865 132.155 24.6865L133.194 26.9207C133.194 26.9207 133.364 24.4363 133.295 22.846C133.208 20.8213 132.623 17.7005 132.623 17.7005C132.623 17.7005 132.115 13.4107 133.516 11.3218C134.838 9.35235 136.305 8.05073 138.676 8.11795C139.761 8.14874 140.303 8.59239 141.346 8.8964M142.018 46.7554C142.018 46.7554 141.222 57.1992 139.73 63.7127C138.223 70.2896 125.712 85.8194 125.712 85.8194M142.018 46.7554C142.018 46.7554 143.21 46.7182 143.914 46.4631C144.978 46.0778 145.582 45.6506 146.232 44.7244C146.908 43.7613 147.075 41.8317 147.075 41.8317C147.075 41.8317 149.19 40.7256 150.143 39.5877C151.399 38.0895 151.544 36.8379 151.983 34.9333C152.639 32.086 151.991 27.4514 151.991 27.4514C151.991 27.4514 155.143 21.376 154.975 17.2156C154.902 15.3955 155.344 13.9938 154.14 12.6264C153.231 11.5932 152.34 11.1615 150.965 11.0971C150.095 11.0564 149.564 11.1658 148.782 11.547M141.346 8.8964C140.873 10.0315 140.136 11.8031 140.136 11.8031L140.012 17.1989L139.887 22.5948M141.346 8.8964C142.294 7.40521 143.756 6.76802 145.494 7.08798C147.622 7.47964 149.037 9.39872 148.782 11.547M148.782 11.547C148.072 12.8487 146.965 14.8803 146.965 14.8803L146.219 20.3365L146.22 23.2337" stroke="#ED1C24" stroke-width="1.59874" stroke-linecap="round"/>
<path d="M134.99 27.6628C135.797 27.898 136.71 28.2173 137.36 28.7671C138.215 29.4906 138.866 30.2886 139.571 31.1376C140.068 31.7359 140.452 32.616 140.687 33.3407C140.765 33.5837 140.843 33.7784 140.826 34.0324C140.823 34.0876 140.864 34.3619 140.875 34.3239" stroke="#ED1C24" stroke-width="1.06583" stroke-linecap="round"/>
<path d="M137.008 24.3619C137.433 24.0953 138.023 24.0342 138.505 23.9127C139.178 23.7428 139.8 23.8158 140.475 23.943C140.887 24.0204 141.334 24.1485 141.687 24.3814C141.929 24.5414 142.166 24.7599 142.426 24.8849" stroke="#ED1C24" stroke-width="1.06583" stroke-linecap="round"/>
<path d="M144.19 25.2554C144.783 24.9509 145.463 24.9896 146.113 24.9892C146.602 24.9889 147.091 25.0976 147.547 25.279C147.813 25.385 148.27 25.6356 148.385 25.9262C148.435 26.0509 148.507 26.1643 148.604 26.2542" stroke="#ED1C24" stroke-width="1.06583" stroke-linecap="round"/>
<path d="M132.469 41.1212C133.504 41.4227 134.638 41.9245 135.735 41.7883C136.615 41.679 137.58 41.1999 138.372 40.8149C139.352 40.3383 140.403 39.5991 141.082 38.7316" stroke="#ED1C24" stroke-width="1.33228" stroke-linecap="round"/>
<path d="M139.333 42.3027C140.01 42.5001 140.714 42.7727 141.418 42.8566C142.038 42.9303 142.702 42.9431 143.322 42.872C144.036 42.7901 144.742 42.5657 145.409 42.3081C145.761 42.1721 146.252 42.1053 146.546 41.8669C146.73 41.7174 147.011 41.5607 147.243 41.5185" stroke="#ED1C24" stroke-width="1.33228" stroke-linecap="round"/>
</g>
<defs>
<clipPath id="clip0_121_14">
<rect width="158.142" height="174.018" fill="white" transform="translate(0.928955 0.547974)"/>
</clipPath>
</defs>
</svg>
