<svg width="654" height="528" viewBox="0 0 654 528" fill="none" xmlns="http://www.w3.org/2000/svg">
<g clip-path="url(#clip0_106_3781)">
<path d="M289.145 251.002C307.258 253.827 333.544 243.757 335.402 243.014C337.26 242.271 343.019 238.184 343.019 238.184L306.236 243.943L256.077 220.164L235.271 178.551L240.101 144.926L255.334 119.661L246.975 114.274C246.975 114.274 234.464 129.921 229.698 143.069C220.247 169.143 221.575 191.261 236.571 214.591C250.076 235.599 264.469 247.154 289.145 251.002Z" fill="#ED1C24" stroke="#ED1C24" stroke-width="1.85772" stroke-linecap="round"/>
<path d="M385.216 170.935C385.216 211.318 351.691 244.129 310.243 244.129C268.796 244.129 235.271 211.318 235.271 170.935C235.271 130.552 268.796 97.7407 310.243 97.7407C351.691 97.7407 385.216 130.552 385.216 170.935Z" fill="white" stroke="#ED1C24" stroke-width="3.71544"/>
<path d="M312.393 241.892C273.952 241.892 243.445 208.486 243.445 170.935C243.445 133.383 274.244 100.385 312.685 100.385" stroke="#ED1C24" stroke-width="0.743088" stroke-linecap="round" stroke-dasharray="0.37 1.86"/>
<path d="M309.177 241.599C270.736 241.599 240.844 207.743 240.844 170.192C240.844 132.641 271.613 100.677 310.054 100.677" stroke="#ED1C24" stroke-width="0.743088" stroke-linecap="round" stroke-dasharray="0.37 1.86"/>
<path d="M307.715 241.014C269.274 241.014 238.615 207.743 238.615 170.192C238.615 132.641 270.151 100.092 308.592 100.092" stroke="#ED1C24" stroke-width="0.743088" stroke-linecap="round" stroke-dasharray="0.37 1.86"/>
<path d="M246.232 113.717C246.232 113.717 240.112 105.012 238.987 97.9267C237.471 88.3864 240.282 81.7951 246.417 74.3336C253.404 65.8362 260.909 61.2969 271.868 62.2585C278.539 62.8438 287.659 68.9462 287.659 68.9462" stroke="#ED1C24" stroke-width="1.85772" stroke-linecap="round"/>
<path d="M286.73 69.3176C266.011 78.4549 253.291 116.689 253.291 116.689L255.335 118.733L267.41 110.373L284.501 102.385L300.849 99.0409L316.453 96.8118C316.453 96.8118 322.235 86.6345 321.469 79.7208C320.737 73.1081 320.813 71.9239 315.426 67.8368C310.038 63.7496 296.432 65.039 286.73 69.3176Z" fill="#ED1C24" stroke="#ED1C24" stroke-width="1.85772" stroke-linecap="round"/>
<path d="M307.908 220.907C307.908 220.907 313.582 222.801 317.197 222.207C321.826 221.446 327.414 215.891 327.414 215.891" stroke="#ED1C24" stroke-width="1.85772" stroke-linecap="round"/>
<path d="M306.422 214.405C306.422 214.405 308.085 218.457 307.722 221.093C307.269 224.384 303.264 228.338 303.264 228.338" stroke="#ED1C24" stroke-width="1.85772" stroke-linecap="round"/>
<path d="M332.244 152.26C332.244 152.26 338.031 147.4 342.779 147.94C346.503 148.363 350.169 151.703 350.169 151.703" stroke="#ED1C24" stroke-width="3.71544" stroke-linecap="round"/>
<path d="M334.297 131.284C334.112 128.312 332.07 111.593 337.085 110.107C342.1 108.62 347.117 123.296 348.417 128.684C349.718 134.071 351.204 146.704 345.073 149.119C338.943 151.534 334.482 134.256 334.297 131.284Z" fill="#ED1C24" stroke="#ED1C24" stroke-width="1.85772"/>
<path d="M339.303 176.323C339.303 190.415 328.122 201.773 314.41 201.773C300.698 201.773 289.516 190.415 289.516 176.323C289.516 162.23 300.698 150.872 314.41 150.872C328.122 150.872 339.303 162.23 339.303 176.323Z" stroke="#ED1C24" stroke-width="3.71544"/>
<path d="M257.006 165.733C253.392 165.733 254.778 170.749 252.548 173.535C250.319 176.322 234.714 185.982 230.813 190.812C226.912 195.642 215.979 206.792 220.41 213.291C224.964 219.971 238.43 215.891 238.43 215.891L233.228 204.745C233.989 203.745 241.956 196.63 242.702 195.828C248.443 189.653 255.914 188.583 258.307 183.381C261.097 177.318 263.137 165.733 257.006 165.733Z" fill="#FFFCFC"/>
<path d="M229.884 207.717C229.884 207.717 231.288 207.295 233.228 204.745M233.228 204.745C233.989 203.745 241.956 196.63 242.702 195.828C248.443 189.653 255.914 188.583 258.307 183.381C261.097 177.318 263.137 165.733 257.006 165.733C253.392 165.733 254.778 170.749 252.548 173.535C250.319 176.322 234.714 185.982 230.813 190.812C226.912 195.642 215.979 206.792 220.41 213.291C224.964 219.971 238.43 215.891 238.43 215.891L233.228 204.745Z" stroke="#ED1C24" stroke-width="2.16585" stroke-linecap="round"/>
<path d="M349.521 225.18C349.521 225.18 356.691 220.892 360.481 217.192C363.06 214.674 366.426 210.133 366.426 210.133" stroke="#ED1C24" stroke-width="1.85772" stroke-linecap="round"/>
<path d="M249.304 160.67C249.304 160.67 250.107 152.935 251.574 148.14C252.628 144.693 256.785 139.31 256.785 139.31" stroke="#ED1C24" stroke-width="1.85772" stroke-linecap="round"/>
<ellipse cx="232.268" cy="73.054" rx="4.08698" ry="7.43088" transform="rotate(37.5972 232.268 73.054)" fill="#ED1C24"/>
<path d="M272.861 296.982L295.339 262.428L302.521 251.188L295.339 251.56L290.631 251.188L284.379 260.385L268.774 282.306C268.774 282.306 266.874 243.048 248.711 239.207C238.761 237.102 230.072 237.807 223.446 245.523C218.241 251.583 217.53 257.486 218.616 265.4C219.63 272.795 222.672 276.642 227.533 282.306C235.418 291.493 254.841 296.982 254.841 296.982H272.861Z" fill="#ED1C24" stroke="#ED1C24" stroke-width="1.85772" stroke-linecap="round"/>
<path d="M326.856 283.512L318.497 259.548L315.153 249.144L321.655 247.472L326.856 246.358L330.572 257.876L338.56 280.354C338.56 280.354 349.611 274.352 357.323 272.366C365.229 270.329 370.356 267.827 378.13 270.322C386.103 272.882 391.159 276.788 394.106 284.627C395.797 289.127 395.221 296.888 395.221 296.888L318.497 297.259C318.497 297.259 318.908 291.035 320.54 288.714C322.173 286.392 326.856 283.512 326.856 283.512Z" fill="#ED1C24" stroke="#ED1C24" stroke-width="1.85772" stroke-linecap="round"/>
<path d="M302.335 188.709C307.567 188.73 315.153 192.61 315.153 192.61C315.153 192.61 329.504 185.912 337.817 188.709C347.452 191.951 350.45 209.33 350.45 209.33C350.45 209.33 337.26 204.314 330.015 201.899C323.428 199.703 316.082 205.428 316.082 205.428C316.082 205.428 307.908 200.97 301.22 203.571C294.532 206.171 279.485 217.132 279.485 217.132C279.485 217.132 288.093 188.651 302.335 188.709Z" fill="#ED1C24" stroke="#ED1C24" stroke-width="1.85772"/>
<path d="M274.098 297.446C270.382 294.288 262.14 284.412 260.229 280.077C256.783 272.26 253.267 262.775 252.362 260.663C251.248 258.062 247.712 251.809 242.766 249.424C237.528 246.899 232.587 246.722 227.097 249.424C223.162 251.361 216.88 258.805 216.88 258.805" stroke="white" stroke-width="1.11463" stroke-linecap="round"/>
<path d="M272.992 158.779C272.992 158.779 277.706 152.871 282.467 152.462C286.201 152.142 290.455 154.691 290.455 154.691" stroke="#ED1C24" stroke-width="3.71544" stroke-linecap="round"/>
<path d="M271.692 135.371C271.507 132.399 269.464 115.68 274.48 114.194C279.495 112.707 284.511 127.384 285.812 132.771C287.112 138.158 288.598 150.791 282.468 153.206C276.337 155.621 271.877 138.344 271.692 135.371Z" fill="#ED1C24" stroke="#ED1C24" stroke-width="1.85772"/>
<path d="M275.955 135.824L270.939 133.78L270.196 137.31L271.868 139.354L275.955 135.824Z" fill="white" stroke="white" stroke-width="0.743088" stroke-linecap="round"/>
<path d="M338.375 131.737L333.359 129.693L332.616 133.223L334.288 135.266L338.375 131.737Z" fill="white" stroke="white" stroke-width="0.743088" stroke-linecap="round"/>
<path d="M256.855 92.3591L248.985 85.1789L250.36 83.6724L260.262 84.1993L259.595 84.93L253.93 79.7602L255.571 77.9615L263.44 85.1418L262.076 86.6369L252.163 86.1213L252.83 85.3906L258.496 90.5604L256.855 92.3591ZM266.924 81.3238L263.709 78.3901L265.19 78.9794L256.275 77.1901L258.039 75.2564L264.878 76.6345L263.862 77.7475L261.875 71.0519L263.506 69.2644L266.103 77.9789L265.37 76.5689L268.586 79.5026L266.924 81.3238Z" fill="#ED1C24"/>
<line x1="238.727" y1="94.9911" x2="255.818" y2="107.995" stroke="#ED1C24" stroke-width="0.371544"/>
<line x1="240.586" y1="84.9604" x2="259.906" y2="99.8221" stroke="#ED1C24" stroke-width="0.371544"/>
<line x1="245.043" y1="77.528" x2="264.363" y2="92.0182" stroke="#ED1C24" stroke-width="0.371544"/>
<line x1="250.616" y1="70.8408" x2="270.308" y2="85.7025" stroke="#ED1C24" stroke-width="0.371544"/>
<line x1="256.935" y1="65.6407" x2="275.14" y2="79.7594" stroke="#ED1C24" stroke-width="0.371544"/>
<line x1="265.851" y1="61.5535" x2="284.057" y2="75.6722" stroke="#ED1C24" stroke-width="0.371544"/>
<path d="M331.624 170.058C334.067 177.251 331.105 183.977 326.327 189.378H332.559L337.025 182.419L338.272 174.421L336.506 164.865L332.87 159.463L327.054 154.997L321.652 153.024L317.602 151.258L315.316 152.296C322.483 153.024 328.988 162.298 331.624 170.058Z" fill="#ED1C24" stroke="#ED1C24" stroke-width="2.07739" stroke-linecap="round"/>
<path d="M384.827 162.775C384.827 162.775 394.793 150.469 397.085 139.918C398.397 133.876 398.569 130.384 399.519 124.274M399.519 124.274C402.837 124.284 408.016 124.298 408.016 124.298M399.519 124.274C398.351 123.98 397.684 123.579 396.875 122.686C395.969 121.685 395.669 120.849 395.512 119.508C395.417 118.696 395.631 117.417 395.631 117.417L393.075 115.527C393.075 115.527 390.115 112.531 389.093 110.114C388.132 107.841 387.962 103.897 387.962 103.897C387.962 103.897 382.474 100.223 381.769 96.5318C381.315 94.1555 381.045 92.2617 382.578 90.3899C384.42 88.1408 387.129 87.966 389.875 88.9195C392.558 89.851 394.655 94.4012 394.655 94.4012L396.062 97.428C396.062 97.428 396.293 94.0623 396.199 91.9079C396.081 89.1651 395.288 84.9373 395.288 84.9373C395.288 84.9373 394.6 79.1257 396.499 76.2959C398.289 73.6278 400.276 71.8645 403.488 71.9556C404.959 71.9973 405.693 72.5983 407.105 73.0102M408.016 124.298C408.016 124.298 406.938 138.447 404.917 147.271C402.875 156.181 385.926 177.219 385.926 177.219M408.016 124.298C408.016 124.298 409.63 124.248 410.585 123.902C412.026 123.381 412.844 122.802 413.724 121.547C414.64 120.242 414.867 117.628 414.867 117.628C414.867 117.628 417.732 116.13 419.024 114.588C420.724 112.559 420.922 110.863 421.516 108.283C422.405 104.426 421.527 98.147 421.527 98.147C421.527 98.147 425.797 89.9164 425.57 84.2803C425.47 81.8146 426.069 79.9158 424.439 78.0633C423.207 76.6635 421.999 76.0788 420.137 75.9915C418.958 75.9363 418.239 76.0845 417.179 76.601M407.105 73.0102C406.465 74.5479 405.467 76.9479 405.467 76.9479L405.298 84.2578L405.129 91.5677M407.105 73.0102C408.39 70.99 410.371 70.1268 412.726 70.5603C415.608 71.0909 417.524 73.6907 417.179 76.601M417.179 76.601C416.218 78.3645 414.718 81.1166 414.718 81.1166L413.707 88.5082L413.708 92.4332" stroke="#ED1C24" stroke-width="2.16585" stroke-linecap="round"/>
<path d="M398.495 98.4329C399.587 98.7514 400.824 99.184 401.705 99.9289C402.864 100.909 403.745 101.99 404.7 103.14C405.373 103.951 405.894 105.143 406.212 106.125C406.318 106.454 406.423 106.718 406.401 107.062C406.396 107.137 406.452 107.508 406.467 107.457" stroke="#ED1C24" stroke-width="1.4439" stroke-linecap="round"/>
<path d="M401.229 93.9615C401.805 93.6003 402.605 93.5175 403.257 93.3529C404.169 93.1228 405.012 93.2217 405.926 93.3939C406.484 93.4988 407.089 93.6724 407.567 93.9879C407.896 94.2046 408.216 94.5006 408.568 94.67" stroke="#ED1C24" stroke-width="1.4439" stroke-linecap="round"/>
<path d="M410.959 95.1717C411.762 94.7592 412.684 94.8117 413.565 94.8112C414.226 94.8108 414.888 94.958 415.506 95.2038C415.867 95.3474 416.486 95.6868 416.642 96.0805C416.709 96.2495 416.807 96.403 416.939 96.5248" stroke="#ED1C24" stroke-width="1.4439" stroke-linecap="round"/>
<path d="M395.081 116.666C396.482 117.074 398.018 117.754 399.504 117.569C400.696 117.421 402.005 116.772 403.078 116.251C404.405 115.605 405.829 114.604 406.749 113.428" stroke="#ED1C24" stroke-width="1.80487" stroke-linecap="round"/>
<path d="M404.378 118.266C405.295 118.534 406.248 118.903 407.203 119.017C408.042 119.116 408.942 119.134 409.781 119.037C410.749 118.926 411.705 118.622 412.609 118.274C413.086 118.089 413.751 117.999 414.149 117.676C414.398 117.473 414.78 117.261 415.094 117.204" stroke="#ED1C24" stroke-width="1.80487" stroke-linecap="round"/>
<path d="M86.6697 361.246C85.2361 361.246 84.3118 361.68 83.8969 362.548C83.5196 363.415 83.331 365.434 83.331 368.603C83.331 373.394 83.6328 377.128 84.2364 379.807C84.425 380.561 84.708 381.146 85.0852 381.561C85.4625 381.976 86.1792 382.485 87.2355 383.089C89.4991 384.334 90.6308 385.975 90.6308 388.012C90.6308 390.502 89.0464 392.275 85.8774 393.331C82.7463 394.35 77.427 394.859 69.9197 394.859C55.9614 394.859 48.9823 392.219 48.9823 386.937C48.9823 386.032 49.1897 385.315 49.6047 384.787C50.0197 384.221 50.9628 383.447 52.4341 382.467C54.094 381.373 55.2069 380.09 55.7728 378.619C56.3764 377.11 56.7914 374.525 57.0177 370.866C57.2063 368.188 57.3006 358.587 57.3006 342.063C57.3006 336.819 57.0366 333.254 56.5084 331.368C55.9803 329.482 54.8485 328.105 53.1132 327.237C51.4532 326.445 50.3404 325.728 49.7745 325.087C49.2086 324.408 48.9257 323.54 48.9257 322.484C48.9257 321.088 49.4538 319.881 50.5101 318.862C51.6041 317.806 53.1132 317.032 55.0371 316.542C56.6593 316.127 58.8851 315.919 61.7145 315.919C62.9594 315.919 66.0717 316.108 71.0515 316.485C71.9946 316.561 73.4847 316.598 75.5219 316.598C78.9172 316.598 83.4442 316.372 89.1029 315.919C92.6868 315.655 95.1955 315.523 96.6291 315.523C104.702 315.523 111.38 317.466 116.661 321.352C121.415 324.86 123.791 329.727 123.791 335.951C123.791 339.422 122.961 342.591 121.301 345.458C119.641 348.288 117.359 350.419 114.454 351.853C113.247 352.456 112.643 353.173 112.643 354.003C112.643 355.097 113.568 355.984 115.416 356.663C119.377 358.096 122.282 360.265 124.131 363.17C125.979 366.075 127.3 370.527 128.092 376.525C128.431 379.015 128.922 380.637 129.563 381.391C130.204 382.108 131.695 382.806 134.034 383.485C134.75 383.712 135.354 384.202 135.844 384.956C136.335 385.673 136.58 386.484 136.58 387.39C136.58 388.559 136.127 389.748 135.222 390.955C134.317 392.124 133.147 393.048 131.713 393.728C128.545 395.199 124.206 395.934 118.698 395.934C111.342 395.934 106.079 393.992 102.91 390.106C101.477 388.371 100.251 386.183 99.2321 383.542C98.2513 380.901 97.0818 376.789 95.7237 371.206C94.856 367.622 93.7431 365.094 92.385 363.623C91.0646 362.152 89.1595 361.359 86.6697 361.246ZM83.3876 332.386L82.7651 345.571C82.7651 345.685 82.7651 345.854 82.7651 346.081C82.7651 347.439 82.9537 348.344 83.331 348.797C83.746 349.25 84.5571 349.476 85.7643 349.476C89.0841 349.476 91.4985 348.627 93.0075 346.93C94.5165 345.194 95.271 342.44 95.271 338.668C95.271 331.387 92.6868 327.746 87.5185 327.746C86.0472 327.746 85.0098 328.086 84.4062 328.765C83.8026 329.444 83.463 330.651 83.3876 332.386ZM163.855 315.297C168.156 315.297 172.211 315.674 176.022 316.429C181.152 317.447 183.718 319.617 183.718 322.936C183.718 324.03 183.454 324.86 182.925 325.426C182.435 325.954 181.152 326.747 179.077 327.803C177.342 328.671 176.191 330.576 175.626 333.518C175.097 336.461 174.833 342.195 174.833 350.721C174.833 365.132 175.192 374.054 175.908 377.487C176.173 378.581 176.569 379.43 177.097 380.033C177.663 380.599 178.625 381.222 179.983 381.901C182.473 383.032 183.718 384.674 183.718 386.824C183.718 389.842 181.416 391.917 176.814 393.048C171.834 394.256 165.742 394.859 158.536 394.859C146.238 394.859 140.088 392.52 140.088 387.842C140.088 386.145 141.296 384.56 143.71 383.089C145.559 381.957 146.653 380.411 146.992 378.449C147.709 374.148 148.067 365.019 148.067 351.06C148.067 341.403 147.577 335.216 146.596 332.5C146.068 330.953 144.804 329.557 142.805 328.312C141.258 327.294 140.221 326.445 139.692 325.766C139.164 325.087 138.9 324.219 138.9 323.163C138.9 321.54 139.673 320.258 141.22 319.315C142.805 318.334 145.577 317.466 149.539 316.712C154.254 315.769 159.026 315.297 163.855 315.297ZM230.742 314.901C236.25 314.901 241.569 316.108 246.7 318.522C249.114 319.654 250.793 320.22 251.736 320.22C252.415 320.22 253.509 320.05 255.018 319.711C255.509 319.598 256.056 319.541 256.659 319.541C258.621 319.541 260.337 320.446 261.809 322.257C265.43 326.633 267.241 332.066 267.241 338.555C267.241 343.119 265.675 346.458 262.544 348.571C260.847 349.702 258.942 350.268 256.829 350.268C254.905 350.268 253.339 349.853 252.132 349.023C250.925 348.193 249.755 346.722 248.624 344.609C247.002 341.629 245.681 339.498 244.663 338.215C243.644 336.895 242.399 335.706 240.928 334.65C237.268 332.085 233.439 330.802 229.44 330.802C225.555 330.802 222.461 332.217 220.16 335.046C217.897 337.838 216.765 341.591 216.765 346.307C216.765 352.796 218.406 358.737 221.688 364.132C226.14 371.338 232.515 374.94 240.815 374.94C243.87 374.94 246.888 374.431 249.869 373.413C252.887 372.394 255.226 371.074 256.885 369.451C258.319 368.093 259.489 367.414 260.394 367.414C261.714 367.414 262.846 368.037 263.789 369.282C264.732 370.489 265.204 371.96 265.204 373.695C265.204 375.884 264.544 378.336 263.223 381.052C261.903 383.768 260.318 385.9 258.47 387.446C257.678 388.088 256.037 388.654 253.547 389.144C252.113 389.408 250.208 390.106 247.831 391.238C242.248 393.916 236.438 395.255 230.402 395.255C224.102 395.255 217.821 393.841 211.559 391.011C204.278 387.729 198.525 382.693 194.299 375.902C190.15 369.301 188.075 362.397 188.075 355.191C188.075 346.816 190.678 339.177 195.884 332.273C200.411 326.275 206.315 321.691 213.596 318.522C219.141 316.108 224.857 314.901 230.742 314.901ZM296.497 315.24C308.267 315.24 314.152 317.674 314.152 322.54C314.152 323.861 313.85 324.936 313.247 325.766C312.643 326.596 311.493 327.52 309.795 328.538C308.324 329.444 307.381 330.632 306.966 332.104C306.588 333.575 306.4 336.555 306.4 341.044C306.4 343.685 306.89 345.307 307.871 345.911C308.437 346.288 309.286 346.515 310.417 346.59C311.587 346.665 314.303 346.703 318.566 346.703C322.452 346.703 324.866 346.496 325.809 346.081C326.752 345.666 327.224 344.628 327.224 342.968C327.224 337.989 326.998 334.518 326.545 332.556C326.092 330.595 325.206 329.255 323.885 328.538C322.225 327.595 321.131 326.803 320.603 326.162C320.075 325.483 319.811 324.596 319.811 323.502C319.811 321.955 320.396 320.56 321.565 319.315C322.735 318.032 324.263 317.164 326.149 316.712C330.072 315.769 334.995 315.297 340.918 315.297C347.86 315.297 352.971 315.938 356.254 317.221C359.573 318.466 361.233 320.428 361.233 323.106C361.233 325.37 360.064 327.067 357.725 328.199C356.254 328.878 355.292 329.538 354.839 330.18C354.386 330.783 354.028 331.934 353.764 333.631C353.613 334.575 353.424 338.762 353.198 346.194C352.971 353.626 352.858 359.53 352.858 363.906C352.858 371.564 353.141 376.431 353.707 378.505C354.009 379.637 354.348 380.392 354.726 380.769C355.103 381.146 356.291 381.901 358.291 383.032C359.724 383.825 360.441 385.032 360.441 386.654C360.441 389.521 358.725 391.615 355.292 392.935C351.896 394.218 346.37 394.859 338.711 394.859C331.996 394.859 327.035 394.199 323.829 392.879C320.924 391.672 319.472 389.804 319.472 387.277C319.472 385.126 320.584 383.447 322.81 382.24C323.904 381.637 324.64 381.033 325.017 380.429C325.432 379.826 325.828 378.713 326.205 377.091C326.885 373.922 327.224 370.036 327.224 365.434C327.224 363.057 326.866 361.586 326.149 361.02C325.47 360.454 323.659 360.171 320.716 360.171C313.964 360.171 309.663 360.548 307.814 361.303C307.06 361.605 306.588 362.491 306.4 363.962C306.173 365.773 306.06 367.999 306.06 370.64C306.06 374.94 306.664 378.034 307.871 379.92C308.286 380.524 309.267 381.297 310.814 382.24C312.398 383.146 313.19 384.636 313.19 386.711C313.19 389.351 311.361 391.37 307.701 392.766C304.042 394.161 298.817 394.859 292.026 394.859C285.84 394.859 280.784 394.218 276.861 392.935C275.163 392.369 273.824 391.577 272.843 390.559C271.9 389.502 271.429 388.352 271.429 387.107C271.429 385.862 271.73 384.9 272.334 384.221C272.938 383.542 274.258 382.674 276.295 381.618C277.351 381.09 278.087 380.411 278.502 379.581C278.955 378.751 279.294 377.355 279.521 375.393C280.086 370.979 280.369 365.207 280.369 358.077C280.369 356.757 280.351 355.191 280.313 353.381C280.162 344.326 280.086 339.158 280.086 337.875C280.124 334.631 279.841 332.5 279.238 331.481C278.672 330.425 277.144 329.274 274.654 328.029C272.994 327.237 272.164 326.049 272.164 324.464C272.164 320.654 275.861 318.013 283.255 316.542C287.556 315.674 291.97 315.24 296.497 315.24ZM389.301 315.297C393.601 315.297 397.657 315.674 401.467 316.429C406.598 317.447 409.163 319.617 409.163 322.936C409.163 324.03 408.899 324.86 408.371 325.426C407.88 325.954 406.598 326.747 404.523 327.803C402.787 328.671 401.637 330.576 401.071 333.518C400.543 336.461 400.279 342.195 400.279 350.721C400.279 365.132 400.637 374.054 401.354 377.487C401.618 378.581 402.014 379.43 402.542 380.033C403.108 380.599 404.07 381.222 405.428 381.901C407.918 383.032 409.163 384.674 409.163 386.824C409.163 389.842 406.862 391.917 402.259 393.048C397.28 394.256 391.187 394.859 383.981 394.859C371.683 394.859 365.534 392.52 365.534 387.842C365.534 386.145 366.741 384.56 369.156 383.089C371.004 381.957 372.098 380.411 372.438 378.449C373.154 374.148 373.513 365.019 373.513 351.06C373.513 341.403 373.022 335.216 372.041 332.5C371.513 330.953 370.25 329.557 368.25 328.312C366.703 327.294 365.666 326.445 365.138 325.766C364.61 325.087 364.346 324.219 364.346 323.163C364.346 321.54 365.119 320.258 366.666 319.315C368.25 318.334 371.023 317.466 374.984 316.712C379.7 315.769 384.472 315.297 389.301 315.297ZM424.781 316.485H453.867C459.752 316.485 464.034 316.372 466.713 316.146C469.429 315.882 472.07 315.372 474.635 314.618C475.427 314.392 476.05 314.278 476.502 314.278C478.464 314.278 480.199 315.335 481.708 317.447C484.198 320.88 485.443 325.03 485.443 329.897C485.443 332.349 484.915 334.292 483.859 335.725C482.84 337.121 481.426 337.819 479.615 337.819C478.37 337.819 477.389 337.574 476.672 337.083C475.993 336.555 475.069 335.404 473.899 333.631C472.239 331.104 470.127 329.425 467.562 328.595C465.034 327.727 460.865 327.294 455.056 327.294C450.717 327.294 448.077 328.067 447.133 329.614C446.643 330.444 446.341 331.557 446.228 332.952C446.153 334.348 446.115 337.913 446.115 343.647C446.115 345.911 446.492 347.326 447.247 347.891C448.001 348.42 449.982 348.684 453.188 348.684C454.773 348.684 455.923 348.363 456.64 347.722C457.357 347.043 457.81 345.854 457.998 344.157C458.262 341.969 458.526 340.479 458.79 339.686C459.092 338.856 459.62 338.14 460.375 337.536C461.167 336.857 462.091 336.517 463.148 336.517C464.694 336.517 466.015 337.253 467.109 338.724C467.901 339.818 468.561 341.761 469.089 344.553C469.655 347.307 469.938 350.193 469.938 353.211C469.938 359.171 469.014 364.057 467.165 367.867C466.147 369.942 464.6 370.979 462.525 370.979C461.243 370.979 460.356 370.659 459.866 370.017C459.375 369.338 458.998 367.961 458.734 365.886C458.168 361.623 455.678 359.492 451.264 359.492C449.567 359.492 448.397 360.039 447.756 361.133C447.152 362.189 446.85 364.17 446.85 367.075C446.85 368.848 446.964 371.149 447.19 373.978C447.454 376.77 447.718 378.619 447.982 379.524C448.284 380.656 449.208 381.448 450.755 381.901C452.339 382.316 454.961 382.523 458.621 382.523C464.279 382.523 468.542 381.806 471.41 380.373C474.277 378.902 476.616 376.261 478.426 372.451C479.483 370.263 480.426 368.791 481.256 368.037C482.123 367.282 483.236 366.905 484.594 366.905C486.179 366.905 487.48 367.603 488.499 368.999C489.555 370.357 490.083 372.073 490.083 374.148C490.083 376.412 489.499 379.241 488.329 382.636C487.16 386.032 485.726 389.05 484.029 391.69C483.161 392.973 482.444 393.822 481.878 394.237C481.312 394.69 480.596 394.916 479.728 394.916C479.011 394.916 477.974 394.803 476.616 394.576C474.201 394.124 470.976 393.841 466.939 393.728H418.953C417.029 393.728 415.539 393.313 414.482 392.483C413.426 391.615 412.898 390.408 412.898 388.861C412.898 387.767 413.124 386.975 413.577 386.484C414.03 385.994 415.067 385.371 416.689 384.617C417.821 384.126 418.651 383.523 419.179 382.806C419.745 382.089 420.179 381.033 420.481 379.637C421.726 373.941 422.348 366.264 422.348 356.606C422.348 342.044 421.443 332.858 419.632 329.048C419.255 328.293 418.84 327.765 418.387 327.463C417.934 327.162 416.991 326.803 415.557 326.388C413.407 325.747 412.332 324.313 412.332 322.087C412.332 320.88 412.69 319.805 413.407 318.862C414.124 317.919 415.067 317.296 416.236 316.995C417.708 316.655 420.556 316.485 424.781 316.485ZM507.569 314.957C511.568 314.957 514.85 316.523 517.415 319.654C519.679 322.408 520.811 325.69 520.811 329.5C520.811 334.028 519.641 338.649 517.302 343.364C515.001 348.042 511.775 352.343 507.626 356.266C505.324 358.417 503.174 359.492 501.175 359.492C499.817 359.492 498.59 359.134 497.496 358.417C496.44 357.662 495.912 356.813 495.912 355.87C495.912 355.304 496.289 354.663 497.044 353.946C499.458 351.457 501.137 349.4 502.08 347.778C503.061 346.118 503.551 344.44 503.551 342.742C503.551 341.535 502.91 340.46 501.627 339.517C499.251 337.63 497.553 335.819 496.534 334.084C495.554 332.349 495.063 330.293 495.063 327.916C495.063 324.181 496.233 321.107 498.572 318.692C500.948 316.24 503.947 314.995 507.569 314.957ZM562.233 314.901C566.118 314.901 571.211 315.863 577.511 317.787C578.266 318.013 578.87 318.126 579.322 318.126C579.7 318.126 580.831 317.787 582.718 317.108C583.321 316.881 583.962 316.768 584.642 316.768C587.169 316.768 589.829 318.768 592.62 322.767C595.45 326.765 596.864 330.576 596.864 334.197C596.864 336.31 596.223 338.102 594.94 339.573C593.696 341.007 592.168 341.723 590.357 341.723C588.848 341.723 587.622 341.422 586.679 340.818C585.736 340.214 583.661 338.422 580.454 335.442C575.927 331.217 571.475 329.104 567.099 329.104C564.987 329.104 563.289 329.614 562.006 330.632C560.761 331.651 560.139 332.99 560.139 334.65C560.139 337.932 563.025 340.403 568.797 342.063C576.606 344.364 581.605 346.043 583.793 347.099C593.413 351.777 598.223 358.662 598.223 367.754C598.223 375.789 594.94 382.353 588.376 387.446C581.661 392.652 572.89 395.255 562.063 395.255C557.234 395.255 552.141 394.69 546.784 393.558C541.427 392.388 537.561 391.03 535.184 389.483C533.373 388.276 531.732 385.654 530.261 381.618C528.827 377.543 528.11 373.582 528.11 369.734C528.11 367.886 528.488 366.49 529.242 365.547C530.185 364.34 531.374 363.736 532.807 363.736C534.241 363.736 535.618 364.472 536.938 365.943C537.73 366.773 539.598 369.433 542.54 373.922C543.936 376.034 546.143 377.789 549.161 379.184C552.217 380.58 555.367 381.278 558.611 381.278C561.403 381.278 563.666 380.769 565.402 379.75C567.137 378.694 568.005 377.355 568.005 375.733C568.005 374.224 567.326 372.922 565.968 371.828C564.609 370.734 562.403 369.715 559.347 368.772C553.952 367.075 549.84 365.528 547.011 364.132C544.181 362.699 541.541 360.907 539.088 358.756C533.128 353.475 530.148 347.477 530.148 340.761C530.148 337.442 530.921 334.216 532.468 331.085C534.014 327.916 536.202 325.181 539.032 322.88C545.37 317.56 553.103 314.901 562.233 314.901Z" fill="#ED1C24"/>
<path d="M135.024 408.916L149.882 421.924C151.274 423.138 152.278 423.744 152.895 423.744C153.929 423.744 154.446 422.64 154.446 420.433C154.446 417.927 154.297 416.216 153.999 415.301C153.701 414.386 153.074 413.7 152.119 413.242C151.344 412.865 150.797 412.467 150.478 412.049C150.16 411.611 150.001 411.055 150.001 410.378C150.001 408.708 151.145 407.634 153.432 407.156C154.367 406.957 155.998 406.858 158.325 406.858C161.328 406.858 163.407 407.037 164.561 407.395C166.39 407.952 167.305 409.006 167.305 410.557C167.305 411.85 166.559 412.825 165.068 413.481C164.471 413.74 164.063 413.968 163.844 414.167C163.626 414.366 163.437 414.665 163.278 415.062C162.741 416.375 162.462 418.861 162.442 422.521V432.247C162.442 433.739 162.452 435.778 162.472 438.364C162.492 441.864 162.283 444.39 161.846 445.942C161.309 447.871 160.334 448.836 158.922 448.836C158.305 448.836 157.768 448.706 157.311 448.448C156.873 448.189 156.137 447.592 155.103 446.658L137.411 430.815C136.178 429.701 135.153 429.145 134.338 429.145C133.124 429.145 132.518 430.825 132.518 434.187C132.518 436.951 132.667 438.841 132.965 439.855C133.284 440.87 133.92 441.616 134.875 442.093C136.207 442.749 136.874 443.605 136.874 444.659C136.874 447.423 133.9 448.806 127.953 448.806C125.268 448.806 123.179 448.458 121.688 447.762C120.216 447.045 119.48 446.041 119.48 444.748C119.48 444.072 119.619 443.565 119.898 443.227C120.176 442.888 120.803 442.431 121.777 441.854C122.712 441.297 123.279 440.313 123.478 438.901C123.816 436.335 123.985 432.645 123.985 427.832C123.985 422.7 123.687 418.961 123.09 416.614C122.871 415.759 122.593 415.122 122.255 414.704C121.916 414.287 121.359 413.889 120.584 413.511C119.689 413.073 119.062 412.646 118.704 412.228C118.366 411.81 118.197 411.303 118.197 410.707C118.197 408.797 119.838 407.594 123.12 407.096C124.234 406.937 126.183 406.858 128.967 406.858C130.559 406.858 131.712 406.987 132.428 407.246C133.164 407.484 134.029 408.041 135.024 408.916ZM181.238 406.858C185.137 406.858 188.11 407.067 190.159 407.484C191.094 407.663 191.84 408.021 192.397 408.558C192.973 409.076 193.262 409.672 193.262 410.348C193.262 410.866 193.043 411.393 192.605 411.93C191.969 412.745 191.651 413.332 191.651 413.69C191.651 414.406 192.218 415.55 193.351 417.121C194.087 418.135 194.783 418.643 195.44 418.643C195.857 418.643 196.265 418.493 196.663 418.195C197.061 417.877 197.578 417.32 198.214 416.524C198.99 415.55 199.378 414.774 199.378 414.197C199.378 413.839 199.328 413.571 199.229 413.392C199.149 413.213 198.831 412.785 198.274 412.109C197.876 411.651 197.677 411.035 197.677 410.259C197.677 408.011 200.72 406.888 206.807 406.888C210.248 406.888 212.485 407.047 213.52 407.365C214.176 407.564 214.713 407.942 215.131 408.499C215.568 409.056 215.787 409.652 215.787 410.289C215.787 411.104 215.539 411.721 215.041 412.139C214.544 412.556 213.679 412.875 212.446 413.093C211.312 413.312 210.327 413.75 209.492 414.406C208.657 415.043 207.125 416.554 204.897 418.941C202.192 421.865 200.502 424.023 199.825 425.415C199.169 426.788 198.841 428.846 198.841 431.591C198.841 433.898 198.93 436.036 199.109 438.005C199.209 439.219 199.398 440.064 199.676 440.541C199.955 440.999 200.532 441.456 201.407 441.914C202.859 442.67 203.585 443.614 203.585 444.748C203.585 447.453 199.587 448.806 191.591 448.806C188.309 448.806 185.206 448.488 182.282 447.851C179.816 447.314 178.583 446.25 178.583 444.659C178.583 443.426 179.339 442.54 180.85 442.003C181.984 441.606 182.69 441.098 182.969 440.482C183.605 439.109 183.923 435.867 183.923 430.756C183.923 429.164 183.764 427.931 183.446 427.056C183.128 426.161 182.432 425.007 181.358 423.595C179.11 420.671 176.793 418.036 174.406 415.689C173.372 414.675 172.377 413.988 171.423 413.63C170.07 413.133 169.255 412.765 168.976 412.526C168.419 412.049 168.141 411.413 168.141 410.617C168.141 409.284 169.145 408.33 171.154 407.753C173.163 407.156 176.524 406.858 181.238 406.858ZM250.306 406.649C252.355 406.649 255.04 407.156 258.362 408.171C258.759 408.29 259.078 408.35 259.316 408.35C259.515 408.35 260.112 408.171 261.106 407.813C261.425 407.693 261.763 407.634 262.121 407.634C263.453 407.634 264.856 408.688 266.328 410.796C267.819 412.904 268.565 414.913 268.565 416.823C268.565 417.937 268.227 418.881 267.551 419.657C266.894 420.413 266.089 420.791 265.134 420.791C264.339 420.791 263.692 420.632 263.195 420.313C262.698 419.995 261.604 419.05 259.913 417.479C257.526 415.251 255.179 414.138 252.872 414.138C251.758 414.138 250.863 414.406 250.187 414.943C249.53 415.48 249.202 416.186 249.202 417.061C249.202 418.792 250.724 420.095 253.767 420.97C257.884 422.183 260.52 423.068 261.673 423.625C266.745 426.091 269.281 429.721 269.281 434.515C269.281 438.751 267.551 442.212 264.09 444.897C260.55 447.642 255.925 449.015 250.217 449.015C247.671 449.015 244.986 448.716 242.161 448.12C239.337 447.503 237.298 446.787 236.045 445.971C235.09 445.335 234.225 443.953 233.449 441.824C232.694 439.676 232.316 437.588 232.316 435.559C232.316 434.584 232.515 433.848 232.912 433.351C233.41 432.715 234.036 432.397 234.792 432.397C235.548 432.397 236.274 432.784 236.97 433.56C237.388 433.998 238.372 435.4 239.924 437.767C240.66 438.881 241.823 439.806 243.414 440.541C245.025 441.277 246.686 441.645 248.397 441.645C249.869 441.645 251.062 441.377 251.977 440.84C252.892 440.283 253.349 439.577 253.349 438.722C253.349 437.926 252.991 437.24 252.275 436.663C251.559 436.086 250.396 435.549 248.785 435.052C245.94 434.157 243.772 433.341 242.281 432.605C240.789 431.85 239.397 430.905 238.104 429.771C234.961 426.986 233.39 423.824 233.39 420.284C233.39 418.533 233.798 416.833 234.613 415.182C235.428 413.511 236.582 412.069 238.074 410.856C241.415 408.051 245.493 406.649 250.306 406.649ZM289.33 426.31V436.394C289.33 437.588 289.619 438.562 290.196 439.318C290.792 440.074 291.548 440.452 292.463 440.452C293.239 440.452 294.263 440.094 295.536 439.378C295.834 439.199 296.133 439.109 296.431 439.109C296.908 439.109 297.346 439.398 297.744 439.975C298.142 440.551 298.34 441.178 298.34 441.854C298.34 443.087 297.664 444.271 296.312 445.405C293.487 447.811 290.066 449.015 286.048 449.015C282.866 449.015 280.31 448.12 278.381 446.329C276.452 444.519 275.487 442.143 275.487 439.199V425.415C275.487 424.958 275.427 424.679 275.308 424.58C275.208 424.46 274.93 424.401 274.472 424.401H271.399C270.823 424.401 270.455 424.311 270.296 424.132C270.136 423.933 270.057 423.486 270.057 422.79V421.477C270.077 420.88 270.306 420.443 270.743 420.164L284.408 411.572C284.746 411.393 285.163 411.303 285.661 411.303H288.077C288.574 411.303 288.903 411.423 289.062 411.661C289.241 411.88 289.33 412.328 289.33 413.004V417.032C289.33 417.628 289.42 418.016 289.599 418.195C289.798 418.374 290.205 418.464 290.822 418.464H296.342C297.077 418.464 297.555 418.603 297.774 418.881C297.992 419.14 298.102 419.707 298.102 420.582V422.342C298.102 423.297 297.963 423.963 297.684 424.341C297.406 424.699 296.898 424.878 296.163 424.878H290.762C290.205 424.878 289.828 424.978 289.629 425.176C289.43 425.375 289.33 425.753 289.33 426.31ZM328.325 433.172L324.386 444.002C323.412 446.687 322.427 448.875 321.433 450.566C320.458 452.277 319.344 453.729 318.091 454.922C315.506 457.388 312.393 458.621 308.753 458.621C305.809 458.621 303.422 457.846 301.592 456.294C300.18 455.101 299.474 453.579 299.474 451.73C299.474 450.198 299.961 448.915 300.936 447.881C301.931 446.827 303.144 446.3 304.576 446.3C306.008 446.3 307.162 446.777 308.037 447.732C308.455 448.169 308.733 448.557 308.872 448.895C309.011 449.233 309.22 449.979 309.499 451.133C309.718 452.008 310.215 452.446 310.99 452.446C311.607 452.446 312.124 452.177 312.542 451.64C312.96 451.103 313.168 450.437 313.168 449.641C313.168 448.706 312.651 447.145 311.617 444.957L304.427 429.652C303.671 428.061 303.104 427.066 302.726 426.668C302.348 426.27 301.513 425.783 300.22 425.206C299.822 425.047 299.474 424.739 299.176 424.281C298.897 423.804 298.758 423.347 298.758 422.909C298.758 421.139 300.518 419.935 304.039 419.299C306.386 418.881 309.061 418.672 312.065 418.672C314.173 418.672 315.834 418.891 317.047 419.329C318.678 419.906 319.493 420.89 319.493 422.282C319.493 422.78 319.265 423.366 318.807 424.043C318.37 424.679 318.151 425.246 318.151 425.743C318.151 426.221 318.25 426.718 318.449 427.235C318.668 427.752 319.116 428.627 319.792 429.861C320.548 431.253 321.214 431.949 321.791 431.949C322.407 431.949 323.044 431.342 323.7 430.129C324.357 428.896 324.685 427.712 324.685 426.579C324.685 425.664 324.436 424.918 323.939 424.341C323.183 423.446 322.805 422.68 322.805 422.044C322.805 421.029 323.481 420.224 324.834 419.627C326.186 419.011 327.996 418.702 330.264 418.702C334.481 418.702 336.589 419.717 336.589 421.745C336.589 422.481 336.37 423.078 335.933 423.536C335.515 423.973 334.739 424.391 333.605 424.789C332.651 425.147 331.895 425.743 331.338 426.579C330.463 427.911 329.458 430.109 328.325 433.172ZM353.207 424.55V434.127C353.207 438.364 353.267 440.83 353.386 441.526C353.525 442.222 354.022 442.759 354.878 443.137C355.614 443.455 356.101 443.754 356.34 444.032C356.598 444.311 356.727 444.708 356.727 445.226C356.727 445.882 356.489 446.479 356.011 447.016C355.554 447.553 354.937 447.931 354.162 448.149C352.73 448.587 350.313 448.806 346.912 448.806C343.073 448.806 340.378 448.517 338.827 447.941C338.11 447.682 337.524 447.284 337.066 446.747C336.609 446.19 336.38 445.613 336.38 445.017C336.38 444.539 336.499 444.171 336.738 443.913C336.997 443.654 337.544 443.346 338.379 442.988C339.155 442.65 339.632 441.725 339.811 440.213C340.129 437.628 340.288 433.948 340.288 429.174C340.288 424.321 340.149 421.198 339.871 419.806C339.592 418.414 338.896 417.38 337.782 416.703C336.947 416.226 336.37 415.778 336.052 415.361C335.754 414.923 335.604 414.396 335.604 413.78C335.604 412.805 336.072 411.96 337.007 411.244C337.941 410.508 339.433 409.831 341.482 409.215C342.854 408.797 344.634 408.399 346.822 408.021C349.01 407.643 350.601 407.454 351.596 407.454C353.167 407.454 353.953 408.429 353.953 410.378C353.953 411.015 353.853 412.477 353.654 414.764C353.396 418.324 353.247 421.586 353.207 424.55ZM386.055 434.843H372.033C371.416 434.843 371.108 435.111 371.108 435.649C371.108 436.941 371.804 438.165 373.196 439.318C374.609 440.452 376.12 441.019 377.731 441.019C378.686 441.019 379.74 440.84 380.894 440.482C382.067 440.104 383.032 439.646 383.788 439.109C384.464 438.632 385.001 438.393 385.399 438.393C385.916 438.393 386.423 438.712 386.92 439.348C387.418 439.985 387.666 440.641 387.666 441.317C387.666 442.749 386.771 444.132 384.981 445.464C381.819 447.831 378.169 449.015 374.032 449.015C369.855 449.015 366.354 447.801 363.53 445.375C362.157 444.181 361.024 442.739 360.129 441.049C358.955 438.801 358.368 436.434 358.368 433.948C358.368 430.606 359.383 427.603 361.412 424.938C363.162 422.631 365.39 420.91 368.095 419.776C370.123 418.921 372.321 418.493 374.688 418.493C378.467 418.493 381.679 419.567 384.325 421.716C385.657 422.79 386.731 424.063 387.547 425.534C388.482 427.205 388.949 428.836 388.949 430.427C388.949 431.72 388.681 432.784 388.144 433.62C387.607 434.435 386.911 434.843 386.055 434.843ZM372.809 429.264H375.822C377.095 429.264 377.731 428.677 377.731 427.504C377.731 426.43 377.423 425.554 376.806 424.878C376.19 424.202 375.384 423.864 374.39 423.864C373.276 423.864 372.401 424.301 371.764 425.176C371.168 425.992 370.869 426.817 370.869 427.653C370.869 428.249 371.008 428.667 371.287 428.906C371.585 429.145 372.092 429.264 372.809 429.264ZM418.725 448.209H416.576C415.323 448.209 413.921 448.269 412.37 448.388C411.395 448.468 410.719 448.507 410.341 448.507C409.008 448.507 407.924 448.199 407.089 447.583C406.254 446.966 405.836 446.16 405.836 445.166C405.836 444.47 406.015 443.933 406.373 443.555C406.751 443.157 407.357 442.839 408.193 442.6C408.988 442.401 409.525 442.083 409.804 441.645C410.082 441.188 410.301 440.313 410.46 439.02C410.619 437.528 410.759 434.624 410.878 430.308C411.017 425.992 411.087 421.706 411.087 417.449C411.087 415.778 410.957 414.665 410.699 414.108C410.44 413.551 409.834 413.103 408.879 412.765C407.507 412.248 406.82 411.363 406.82 410.11C406.82 409.135 407.288 408.379 408.223 407.842C409.177 407.285 410.5 407.007 412.191 407.007C412.748 407.007 413.404 407.017 414.16 407.037C415.831 407.096 417.044 407.126 417.8 407.126C420.644 407.126 423.856 407.037 427.436 406.858C428.192 406.818 429.137 406.798 430.271 406.798C434.825 406.798 438.426 407.315 441.071 408.35C445.009 409.901 447.973 412.507 449.962 416.166C451.732 419.388 452.617 423.227 452.617 427.683C452.617 429.93 452.289 432.188 451.632 434.455C450.976 436.703 450.091 438.652 448.977 440.303C446.67 443.644 443.488 445.991 439.43 447.344C437.043 448.139 434.497 448.537 431.792 448.537L428.182 448.418L425.079 448.328C422.673 448.249 420.554 448.209 418.725 448.209ZM424.99 415.868V438.96C424.99 440.213 425.258 441.108 425.795 441.645C426.332 442.162 427.227 442.421 428.481 442.421C434.288 442.421 437.192 438.005 437.192 429.174C437.192 424.301 436.516 420.522 435.164 417.837C433.672 414.873 431.146 413.392 427.586 413.392C426.631 413.392 425.955 413.581 425.557 413.959C425.179 414.336 424.99 414.973 424.99 415.868ZM482.78 434.843H468.758C468.141 434.843 467.833 435.111 467.833 435.649C467.833 436.941 468.529 438.165 469.921 439.318C471.333 440.452 472.845 441.019 474.456 441.019C475.411 441.019 476.465 440.84 477.619 440.482C478.792 440.104 479.757 439.646 480.513 439.109C481.189 438.632 481.726 438.393 482.124 438.393C482.641 438.393 483.148 438.712 483.645 439.348C484.143 439.985 484.391 440.641 484.391 441.317C484.391 442.749 483.496 444.132 481.706 445.464C478.544 447.831 474.894 449.015 470.757 449.015C466.58 449.015 463.079 447.801 460.255 445.375C458.882 444.181 457.749 442.739 456.854 441.049C455.68 438.801 455.093 436.434 455.093 433.948C455.093 430.606 456.108 427.603 458.136 424.938C459.887 422.631 462.114 420.91 464.82 419.776C466.848 418.921 469.046 418.493 471.413 418.493C475.192 418.493 478.404 419.567 481.05 421.716C482.382 422.79 483.456 424.063 484.272 425.534C485.207 427.205 485.674 428.836 485.674 430.427C485.674 431.72 485.406 432.784 484.869 433.62C484.332 434.435 483.635 434.843 482.78 434.843ZM469.533 429.264H472.547C473.82 429.264 474.456 428.677 474.456 427.504C474.456 426.43 474.148 425.554 473.531 424.878C472.915 424.202 472.109 423.864 471.115 423.864C470.001 423.864 469.126 424.301 468.489 425.176C467.893 425.992 467.594 426.817 467.594 427.653C467.594 428.249 467.733 428.667 468.012 428.906C468.31 429.145 468.817 429.264 469.533 429.264ZM504.649 424.55V434.127C504.649 438.364 504.709 440.83 504.828 441.526C504.967 442.222 505.465 442.759 506.32 443.137C507.056 443.455 507.543 443.754 507.782 444.032C508.04 444.311 508.17 444.708 508.17 445.226C508.17 445.882 507.931 446.479 507.454 447.016C506.996 447.553 506.38 447.931 505.604 448.149C504.172 448.587 501.755 448.806 498.354 448.806C494.515 448.806 491.82 448.517 490.269 447.941C489.553 447.682 488.966 447.284 488.509 446.747C488.051 446.19 487.822 445.613 487.822 445.017C487.822 444.539 487.942 444.171 488.18 443.913C488.439 443.654 488.986 443.346 489.821 442.988C490.597 442.65 491.074 441.725 491.253 440.213C491.572 437.628 491.731 433.948 491.731 429.174C491.731 424.321 491.591 421.198 491.313 419.806C491.035 418.414 490.338 417.38 489.225 416.703C488.389 416.226 487.812 415.778 487.494 415.361C487.196 414.923 487.047 414.396 487.047 413.78C487.047 412.805 487.514 411.96 488.449 411.244C489.384 410.508 490.875 409.831 492.924 409.215C494.296 408.797 496.077 408.399 498.265 408.021C500.452 407.643 502.044 407.454 503.038 407.454C504.609 407.454 505.395 408.429 505.395 410.378C505.395 411.015 505.296 412.477 505.097 414.764C504.838 418.324 504.689 421.586 504.649 424.55ZM526.518 420.552V437.886C526.518 439.259 526.638 440.263 526.876 440.899C527.135 441.536 527.642 442.123 528.398 442.66C529.014 443.097 529.422 443.475 529.621 443.793C529.84 444.092 529.949 444.48 529.949 444.957C529.949 447.523 526.697 448.806 520.193 448.806C516.693 448.806 513.918 448.527 511.869 447.97C511.173 447.771 510.606 447.423 510.169 446.926C509.751 446.429 509.542 445.862 509.542 445.226C509.542 444.689 509.652 444.271 509.87 443.972C510.089 443.674 510.646 443.197 511.541 442.54C512.158 442.083 512.595 441.337 512.854 440.303C513.112 439.269 513.242 437.727 513.242 435.678C513.242 435.022 513.192 433.799 513.092 432.009C513.013 430.199 512.953 429.145 512.913 428.846C512.794 428.031 512.237 427.404 511.243 426.967C510.01 426.43 509.393 425.634 509.393 424.58C509.393 423.327 510.199 422.392 511.81 421.775C514.037 420.92 516.424 420.194 518.97 419.597C521.516 419.001 523.485 418.702 524.877 418.702C525.971 418.702 526.518 419.319 526.518 420.552ZM520.611 407.484C522.341 407.484 523.714 407.813 524.728 408.469C525.743 409.105 526.25 409.971 526.25 411.065C526.25 412.596 525.484 413.809 523.952 414.704C521.526 416.117 518.592 416.823 515.151 416.823C513.699 416.823 512.546 416.544 511.69 415.987C510.537 415.271 509.96 414.277 509.96 413.004C509.96 411.293 511.183 409.951 513.63 408.976C516.116 407.982 518.443 407.484 520.611 407.484Z" fill="#ED1C24"/>
<line x1="0.5" y1="83.5391" x2="644.074" y2="83.5391" stroke="black" stroke-opacity="0.1" stroke-width="4.28475" stroke-dasharray="8.57 8.57"/>
<line x1="0.504395" y1="40.7051" x2="644.073" y2="40.7051" stroke="black" stroke-opacity="0.1" stroke-width="4.28475" stroke-dasharray="8.57 8.57"/>
<line x1="600.793" y1="527.024" x2="600.793" y2="0.856934" stroke="black" stroke-opacity="0.1" stroke-width="4.28475" stroke-dasharray="8.57 8.57"/>
<line x1="559.659" y1="526.17" x2="558.788" y2="0.860413" stroke="black" stroke-opacity="0.1" stroke-width="4.28475" stroke-dasharray="8.57 8.57"/>
<line x1="558.817" y1="526.167" x2="558.817" stroke="black" stroke-opacity="0.1" stroke-width="4.28475" stroke-dasharray="8.57 8.57"/>
<line x1="517.683" y1="525.313" x2="516.812" y2="0.00347955" stroke="black" stroke-opacity="0.1" stroke-width="4.28475" stroke-dasharray="8.57 8.57"/>
<line x1="516.826" y1="526.167" x2="516.826" stroke="black" stroke-opacity="0.1" stroke-width="4.28475" stroke-dasharray="8.57 8.57"/>
<line x1="475.693" y1="525.313" x2="474.821" y2="0.00347955" stroke="black" stroke-opacity="0.1" stroke-width="4.28475" stroke-dasharray="8.57 8.57"/>
<line x1="474.836" y1="526.167" x2="474.836" stroke="black" stroke-opacity="0.1" stroke-width="4.28475" stroke-dasharray="8.57 8.57"/>
<line x1="433.702" y1="525.313" x2="432.831" y2="0.00347955" stroke="black" stroke-opacity="0.1" stroke-width="4.28475" stroke-dasharray="8.57 8.57"/>
<line x1="432.845" y1="526.167" x2="432.845" stroke="black" stroke-opacity="0.1" stroke-width="4.28475" stroke-dasharray="8.57 8.57"/>
<line x1="391.712" y1="525.313" x2="390.84" y2="0.00347955" stroke="black" stroke-opacity="0.1" stroke-width="4.28475" stroke-dasharray="8.57 8.57"/>
<line x1="390.855" y1="526.167" x2="390.855" stroke="black" stroke-opacity="0.1" stroke-width="4.28475" stroke-dasharray="8.57 8.57"/>
<line x1="349.721" y1="525.313" x2="348.85" y2="0.00347955" stroke="black" stroke-opacity="0.1" stroke-width="4.28475" stroke-dasharray="8.57 8.57"/>
<line x1="348.864" y1="526.167" x2="348.864" stroke="black" stroke-opacity="0.1" stroke-width="4.28475" stroke-dasharray="8.57 8.57"/>
<line x1="307.731" y1="525.313" x2="306.86" y2="0.00347955" stroke="black" stroke-opacity="0.1" stroke-width="4.28475" stroke-dasharray="8.57 8.57"/>
<line x1="306.874" y1="526.167" x2="306.874" y2="-0.00012207" stroke="black" stroke-opacity="0.1" stroke-width="4.28475" stroke-dasharray="8.57 8.57"/>
<line x1="265.74" y1="525.313" x2="264.869" y2="0.00335748" stroke="black" stroke-opacity="0.1" stroke-width="4.28475" stroke-dasharray="8.57 8.57"/>
<line x1="264.883" y1="526.167" x2="264.883" y2="-0.000244141" stroke="black" stroke-opacity="0.1" stroke-width="4.28475" stroke-dasharray="8.57 8.57"/>
<line x1="223.75" y1="525.313" x2="222.879" y2="0.00323541" stroke="black" stroke-opacity="0.1" stroke-width="4.28475" stroke-dasharray="8.57 8.57"/>
<line x1="222.893" y1="526.167" x2="222.893" y2="-0.000366211" stroke="black" stroke-opacity="0.1" stroke-width="4.28475" stroke-dasharray="8.57 8.57"/>
<line x1="181.759" y1="525.313" x2="180.888" y2="0.00311334" stroke="black" stroke-opacity="0.1" stroke-width="4.28475" stroke-dasharray="8.57 8.57"/>
<line x1="180.902" y1="526.166" x2="180.902" y2="-0.000488281" stroke="black" stroke-opacity="0.1" stroke-width="4.28475" stroke-dasharray="8.57 8.57"/>
<line x1="139.768" y1="525.313" x2="138.897" y2="0.00299127" stroke="black" stroke-opacity="0.1" stroke-width="4.28475" stroke-dasharray="8.57 8.57"/>
<line x1="138.911" y1="526.166" x2="138.911" y2="-0.000610352" stroke="black" stroke-opacity="0.1" stroke-width="4.28475" stroke-dasharray="8.57 8.57"/>
<line x1="97.778" y1="525.313" x2="96.9069" y2="0.0028692" stroke="black" stroke-opacity="0.1" stroke-width="4.28475" stroke-dasharray="8.57 8.57"/>
<line x1="96.9211" y1="526.166" x2="96.9211" y2="-0.000610352" stroke="black" stroke-opacity="0.1" stroke-width="4.28475" stroke-dasharray="8.57 8.57"/>
<line x1="55.7873" y1="525.313" x2="54.9162" y2="0.0028692" stroke="black" stroke-opacity="0.1" stroke-width="4.28475" stroke-dasharray="8.57 8.57"/>
<line x1="653.5" y1="426.332" x2="9.92645" y2="426.332" stroke="black" stroke-opacity="0.1" stroke-width="4.28475" stroke-dasharray="8.57 8.57"/>
<line x1="653.496" y1="469.166" x2="9.92664" y2="469.166" stroke="black" stroke-opacity="0.1" stroke-width="4.28475" stroke-dasharray="8.57 8.57"/>
</g>
<defs>
<clipPath id="clip0_106_3781">
<rect width="653" height="527.024" fill="white" transform="translate(0.5)"/>
</clipPath>
</defs>
</svg>
