<svg width="123" height="135" viewBox="0 0 123 135" fill="none" xmlns="http://www.w3.org/2000/svg">
<g clip-path="url(#clip0_121_13)">
<path d="M41.5479 108.228C51.9036 109.843 66.9321 104.086 67.9942 103.661C69.0563 103.236 72.3488 100.9 72.3488 100.9L51.3193 104.192L22.6426 90.5975L10.7471 66.8065L13.5086 47.5825L22.2178 33.1379L17.4383 30.0579C17.4383 30.0579 10.2855 39.0037 7.56085 46.5204C2.15741 61.4275 2.91666 74.073 11.4906 87.4112C19.2113 99.4222 27.44 106.028 41.5479 108.228Z" fill="#ED1C24" stroke="#ED1C24" stroke-width="1.0621" stroke-linecap="round"/>
<path d="M96.4741 62.4519C96.4741 85.5398 77.3071 104.299 53.6106 104.299C29.9142 104.299 10.7472 85.5398 10.7472 62.4519C10.7472 39.3639 29.9142 20.6052 53.6106 20.6052C77.3071 20.6052 96.4741 39.3639 96.4741 62.4519Z" fill="white" stroke="#ED1C24" stroke-width="2.1242"/>
<path d="M54.8391 103.02C32.8615 103.02 15.4202 83.9208 15.4202 62.4519C15.4202 40.9831 33.0286 22.1172 55.0062 22.1172" stroke="#ED1C24" stroke-width="0.424839" stroke-linecap="round" stroke-dasharray="0.21 1.06"/>
<path d="M53.0005 102.852C31.0229 102.852 13.9333 83.4962 13.9333 62.0274C13.9333 40.5585 31.5243 22.2842 53.5019 22.2842" stroke="#ED1C24" stroke-width="0.424839" stroke-linecap="round" stroke-dasharray="0.21 1.06"/>
<path d="M52.1647 102.518C30.1871 102.518 12.6589 83.4962 12.6589 62.0273C12.6589 40.5585 30.6885 21.9498 52.6661 21.9498" stroke="#ED1C24" stroke-width="0.424839" stroke-linecap="round" stroke-dasharray="0.21 1.06"/>
<path d="M17.013 29.7395C17.013 29.7395 13.5141 24.7624 12.8708 20.7117C12.0047 15.2573 13.6117 11.4889 17.1192 7.22302C21.1138 2.36482 25.4045 -0.230368 31.67 0.319377C35.4841 0.654034 40.6978 4.14293 40.6978 4.14293" stroke="#ED1C24" stroke-width="1.0621" stroke-linecap="round"/>
<path d="M40.1673 4.35514C28.3217 9.57916 21.0496 31.4387 21.0496 31.4387L22.2179 32.607L29.1215 27.8275L38.8928 23.2604L48.2393 21.3486L57.1609 20.0742C57.1609 20.0742 60.4665 14.2556 60.0286 10.3029C59.6097 6.52229 59.6535 5.84525 56.5734 3.50853C53.4933 1.17181 45.714 1.90901 40.1673 4.35514Z" fill="#ED1C24" stroke="#ED1C24" stroke-width="1.0621" stroke-linecap="round"/>
<path d="M52.2751 91.022C52.2751 91.022 55.5193 92.105 57.5856 91.7654C60.2321 91.3305 63.4272 88.1543 63.4272 88.1543" stroke="#ED1C24" stroke-width="1.0621" stroke-linecap="round"/>
<path d="M51.4254 87.3048C51.4254 87.3048 52.3762 89.6214 52.1689 91.1284C51.9101 93.01 49.6199 95.2705 49.6199 95.2705" stroke="#ED1C24" stroke-width="1.0621" stroke-linecap="round"/>
<path d="M66.1887 51.7753C66.1887 51.7753 69.4975 48.9966 72.2119 49.305C74.341 49.547 76.4373 51.4563 76.4373 51.4563" stroke="#ED1C24" stroke-width="2.1242" stroke-linecap="round"/>
<path d="M67.3621 39.7826C67.2562 38.0834 66.0887 28.5247 68.956 27.6749C71.8234 26.825 74.6914 35.2158 75.4348 38.2958C76.1782 41.3759 77.0279 48.5981 73.523 49.9789C70.0182 51.3597 67.468 41.4818 67.3621 39.7826Z" fill="#ED1C24" stroke="#ED1C24" stroke-width="1.0621"/>
<path d="M70.2243 65.5323C70.2243 73.5892 63.8319 80.083 55.9922 80.083C48.1526 80.083 41.7601 73.5892 41.7601 65.5323C41.7601 57.4754 48.1526 50.9815 55.9922 50.9815C63.8319 50.9815 70.2243 57.4754 70.2243 65.5323Z" stroke="#ED1C24" stroke-width="2.1242"/>
<path d="M23.1734 59.4779C21.107 59.4778 21.8993 62.3457 20.6246 63.9388C19.3499 65.5319 10.4283 71.0548 8.19796 73.8163C5.96765 76.5777 -0.282844 82.9523 2.2503 86.6677C4.85433 90.4871 12.5527 88.1547 12.5527 88.1547L9.57884 81.7821C10.0138 81.2103 14.5691 77.1427 14.9955 76.684C18.2776 73.1538 22.5486 72.5418 23.9171 69.5679C25.5123 66.1014 26.6784 59.478 23.1734 59.4779Z" fill="#FFFCFC"/>
<path d="M7.66706 83.4814C7.66706 83.4814 8.46993 83.2397 9.57884 81.7821M9.57884 81.7821C10.0138 81.2103 14.5691 77.1427 14.9955 76.684C18.2776 73.1538 22.5486 72.5418 23.9171 69.5679C25.5123 66.1014 26.6784 59.478 23.1734 59.4779C21.1071 59.4778 21.8993 62.3457 20.6246 63.9388C19.3499 65.5319 10.4283 71.0548 8.19796 73.8163C5.96765 76.5777 -0.282844 82.9523 2.2503 86.6677C4.85433 90.4871 12.5527 88.1547 12.5527 88.1547L9.57884 81.7821Z" stroke="#ED1C24" stroke-width="1.23826" stroke-linecap="round"/>
<path d="M76.0662 93.4651C76.0662 93.4651 80.1657 91.0134 82.3325 88.898C83.807 87.4586 85.7313 84.8621 85.7313 84.8621" stroke="#ED1C24" stroke-width="1.0621" stroke-linecap="round"/>
<path d="M18.7704 56.5833C18.7704 56.5833 19.2295 52.1612 20.0679 49.4194C20.6704 47.4489 23.047 44.3711 23.047 44.3711" stroke="#ED1C24" stroke-width="1.0621" stroke-linecap="round"/>
<ellipse cx="9.03013" cy="6.49101" rx="2.33662" ry="4.24839" transform="rotate(37.5972 9.03013 6.49101)" fill="#ED1C24"/>
<path d="M32.2378 134.516L45.0892 114.761L49.1949 108.335L45.0892 108.547L42.3974 108.335L38.8228 113.592L29.9012 126.125C29.9012 126.125 28.8152 103.681 18.4305 101.484C12.7418 100.281 7.77433 100.684 3.986 105.096C1.01032 108.56 0.603701 111.935 1.22454 116.46C1.80461 120.688 3.54339 122.887 6.32261 126.125C10.8307 131.378 21.9355 134.516 21.9355 134.516H32.2378Z" fill="#ED1C24" stroke="#ED1C24" stroke-width="1.0621" stroke-linecap="round"/>
<path d="M63.1085 126.815L58.329 113.114L56.4172 107.166L60.1346 106.21L63.1085 105.573L65.2327 112.158L69.7997 125.009C69.7997 125.009 76.1177 121.578 80.5269 120.442C85.0471 119.278 87.9779 117.847 92.4224 119.274C96.9812 120.737 99.8719 122.97 101.556 127.452C102.524 130.025 102.194 134.462 102.194 134.462L58.329 134.674C58.329 134.674 58.5641 131.116 59.4973 129.789C60.4306 128.461 63.1085 126.815 63.1085 126.815Z" fill="#ED1C24" stroke="#ED1C24" stroke-width="1.0621" stroke-linecap="round"/>
<path d="M49.089 72.6135C52.0805 72.6257 56.4174 74.8439 56.4174 74.8439C56.4174 74.8439 64.6221 71.0144 69.375 72.6137C74.8833 74.4672 76.5973 84.403 76.5973 84.403C76.5973 84.403 69.0564 81.5352 64.9142 80.1545C61.1482 78.8991 56.9485 82.1725 56.9485 82.1725C56.9485 82.1725 52.2752 79.6234 48.4517 81.1104C44.6281 82.5973 36.0251 88.8636 36.0251 88.8636C36.0251 88.8636 40.9465 72.5805 49.089 72.6135Z" fill="#ED1C24" stroke="#ED1C24" stroke-width="1.0621"/>
<path d="M32.9446 134.781C30.8204 132.975 26.1079 127.329 25.0153 124.851C23.0456 120.382 21.0355 114.959 20.518 113.751C19.8808 112.265 17.8596 108.69 15.0316 107.326C12.0368 105.882 9.2122 105.781 6.07348 107.326C3.82369 108.434 0.231934 112.689 0.231934 112.689" stroke="white" stroke-width="0.637259" stroke-linecap="round"/>
<path d="M32.313 55.5016C32.313 55.5016 35.0078 52.1241 37.7297 51.8905C39.8647 51.7072 42.2967 53.1648 42.2967 53.1648" stroke="#ED1C24" stroke-width="2.1242" stroke-linecap="round"/>
<path d="M31.5694 42.1193C31.4635 40.4201 30.2959 30.8614 33.1633 30.0115C36.0307 29.1617 38.8987 37.5525 39.6421 40.6325C40.3855 43.7126 41.2352 50.9348 37.7303 52.3156C34.2255 53.6964 31.6753 43.8185 31.5694 42.1193Z" fill="#ED1C24" stroke="#ED1C24" stroke-width="1.0621"/>
<path d="M34.0066 42.3779L31.139 41.2096L30.7141 43.2276L31.67 44.3959L34.0066 42.3779Z" fill="white" stroke="white" stroke-width="0.424839" stroke-linecap="round"/>
<path d="M69.6934 40.0414L66.8257 38.873L66.4009 40.891L67.3568 42.0593L69.6934 40.0414Z" fill="white" stroke="white" stroke-width="0.424839" stroke-linecap="round"/>
<path d="M23.294 17.7175L18.7949 13.6124L19.5807 12.7511L25.2421 13.0523L24.861 13.4701L21.6216 10.5144L22.5599 9.48603L27.059 13.5912L26.279 14.446L20.6118 14.1512L20.993 13.7334L24.2323 16.6891L23.294 17.7175ZM29.0507 11.4083L27.2125 9.73109L28.0593 10.068L22.9623 9.045L23.971 7.93951L27.8809 8.72739L27.3004 9.3637L26.1643 5.53569L27.0968 4.51375L28.5813 9.49597L28.1625 8.68987L30.0007 10.3671L29.0507 11.4083Z" fill="#ED1C24"/>
<line x1="12.723" y1="19.0332" x2="22.4943" y2="26.4678" stroke="#ED1C24" stroke-width="0.21242"/>
<line x1="13.7857" y1="13.2984" x2="24.8315" y2="21.7952" stroke="#ED1C24" stroke-width="0.21242"/>
<line x1="16.3337" y1="9.04919" x2="27.3796" y2="17.3336" stroke="#ED1C24" stroke-width="0.21242"/>
<line x1="19.5203" y1="5.22614" x2="30.7785" y2="13.7229" stroke="#ED1C24" stroke-width="0.21242"/>
<line x1="23.1325" y1="2.25311" x2="33.541" y2="10.3251" stroke="#ED1C24" stroke-width="0.21242"/>
<line x1="28.2306" y1="-0.083685" x2="38.6392" y2="7.98826" stroke="#ED1C24" stroke-width="0.21242"/>
<path d="M65.8344 61.9505C67.2311 66.0627 65.5374 69.908 62.8057 72.996H66.3688L68.9224 69.0173L69.635 64.4447L68.6254 58.9813L66.547 55.8933L63.2214 53.3397L60.1334 52.2114L57.8174 51.2019L56.511 51.7957C60.6085 52.2114 64.3274 57.5139 65.8344 61.9505Z" fill="#ED1C24" stroke="#ED1C24" stroke-width="1.18769" stroke-linecap="round"/>
<path d="M96.2513 57.787C96.2513 57.787 101.949 50.7513 103.259 44.7189C104.009 41.2646 104.108 39.2679 104.651 35.7751M104.651 35.7751C106.548 35.7805 109.509 35.7889 109.509 35.7889M104.651 35.7751C103.983 35.6067 103.602 35.3774 103.14 34.8669C102.621 34.2948 102.45 33.817 102.36 33.0503C102.306 32.5858 102.428 31.8547 102.428 31.8547L100.967 30.7742C100.967 30.7742 99.2744 29.0615 98.6901 27.6796C98.1407 26.3801 98.0434 24.1252 98.0434 24.1252C98.0434 24.1252 94.9061 22.0245 94.5028 19.9141C94.2431 18.5555 94.0892 17.4728 94.9655 16.4026C96.0185 15.1168 97.5674 15.0168 99.1374 15.562C100.671 16.0946 101.87 18.696 101.87 18.696L102.675 20.4265C102.675 20.4265 102.806 18.5022 102.753 17.2705C102.685 15.7024 102.232 13.2853 102.232 13.2853C102.232 13.2853 101.839 9.96266 102.924 8.3448C103.948 6.81941 105.084 5.81127 106.92 5.86334C107.761 5.88719 108.181 6.23081 108.988 6.46626M109.509 35.7889C109.509 35.7889 108.893 43.8779 107.737 48.9227C106.57 54.0166 96.8796 66.0448 96.8796 66.0448M109.509 35.7889C109.509 35.7889 110.432 35.7601 110.977 35.5625C111.801 35.2641 112.269 34.9332 112.772 34.2159C113.296 33.4699 113.426 31.9754 113.426 31.9754C113.426 31.9754 115.064 31.1187 115.802 30.2373C116.774 29.077 116.887 28.1076 117.227 26.6324C117.735 24.4271 117.234 20.8375 117.234 20.8375C117.234 20.8375 119.675 16.132 119.545 12.9097C119.488 11.4999 119.83 10.4143 118.898 9.35527C118.194 8.55499 117.503 8.22065 116.439 8.17075C115.765 8.1392 115.354 8.22396 114.748 8.51924M108.988 6.46626C108.622 7.34545 108.051 8.71755 108.051 8.71755L107.955 12.8968L107.859 17.076M108.988 6.46626C109.723 5.31131 110.855 4.81779 112.201 5.06561C113.849 5.36896 114.945 6.85533 114.748 8.51924M114.748 8.51924C114.198 9.52744 113.34 11.1009 113.34 11.1009L112.763 15.3269L112.763 17.5708" stroke="#ED1C24" stroke-width="1.23826" stroke-linecap="round"/>
<path d="M104.066 21.0011C104.691 21.1832 105.398 21.4305 105.901 21.8564C106.564 22.4167 107.068 23.0348 107.614 23.6924C107.999 24.1557 108.296 24.8374 108.478 25.3988C108.539 25.5869 108.599 25.7378 108.586 25.9344C108.583 25.9772 108.615 26.1896 108.624 26.1602" stroke="#ED1C24" stroke-width="0.825507" stroke-linecap="round"/>
<path d="M105.629 18.4444C105.958 18.2379 106.415 18.1906 106.788 18.0965C107.31 17.9649 107.792 18.0214 108.315 18.1199C108.633 18.1799 108.979 18.2792 109.253 18.4595C109.44 18.5834 109.624 18.7526 109.825 18.8495" stroke="#ED1C24" stroke-width="0.825507" stroke-linecap="round"/>
<path d="M111.192 19.1365C111.651 18.9006 112.178 18.9306 112.682 18.9303C113.06 18.9301 113.439 19.0143 113.792 19.1548C113.998 19.2369 114.352 19.431 114.441 19.6561C114.479 19.7527 114.536 19.8404 114.611 19.9101" stroke="#ED1C24" stroke-width="0.825507" stroke-linecap="round"/>
<path d="M102.114 31.425C102.915 31.6585 103.793 32.0472 104.643 31.9416C105.324 31.857 106.072 31.4859 106.686 31.1877C107.445 30.8186 108.259 30.2461 108.784 29.5742" stroke="#ED1C24" stroke-width="1.03188" stroke-linecap="round"/>
<path d="M107.429 32.3402C107.954 32.4931 108.499 32.7042 109.044 32.7692C109.524 32.8263 110.038 32.8362 110.519 32.7811C111.072 32.7177 111.619 32.5439 112.135 32.3444C112.408 32.239 112.788 32.1873 113.016 32.0027C113.158 31.8869 113.376 31.7655 113.556 31.7328" stroke="#ED1C24" stroke-width="1.03188" stroke-linecap="round"/>
</g>
<defs>
<clipPath id="clip0_121_13">
<rect width="122.484" height="134.781" fill="white" transform="translate(0.231934)"/>
</clipPath>
</defs>
</svg>
